# xmcd CD database file
#
# Track frame offsets:
#	150
#	18435
#	34760
#	49964
#	67988
#	88504
#	116670
#	135844
#	151587
#	164693
#
# Disc length: 2485 seconds
#
# Revision: 3
# Processed by: cddbd v1.5.2PL0 Copyright (c) Steve Scherf et al.
# Submitted via: CDex 1.70beta2
#
DISCID=7609b30a
DTITLE=Annett Louisan - Berlin - Kapstadt - Prag
DYEAR=2016
DGENRE=Deutsch
TTITLE0=Engel (Rammstein)
TTITLE1=Das Modell (Kraftwerk)
TTITLE2=OMG! (Marteria)
TTITLE3=Bologna (Wanda)
TTITLE4=Wie soll ein Mensch das ertragen (Philip Poisel)
TTITLE5=Stark (Ich and Ich)
TTITLE6=Durch den Monsun (Tokio Hotel)
TTITLE7=Solang' man Träume noch leben kann (Münchener Freiheit)
TTITLE8=Merci Chérie (Udo Jürgens)
TTITLE9=Helden (David Bowie)
EXTD=YEAR: 2016
EXTT0=
EXTT1=
EXTT2=
EXTT3=
EXTT4=
EXTT5=
EXTT6=
EXTT7=
EXTT8=
EXTT9=
PLAYORDER=
